<svg xmlns="http://www.w3.org/2000/svg" width="1200" height="630" viewBox="0 0 1200 630" role="img" aria-label="abdulmunimjemal/shipcard">
  <defs>
    <linearGradient id="sc-bg" x1="0" y1="0" x2="1" y2="1">
      <stop offset="0%" stop-color="#0d1117" />
      <stop offset="100%" stop-color="#161b22" />
    </linearGradient>
  </defs>
  <style>text { font-family: -apple-system, BlinkMacSystemFont, 'Segoe UI', Helvetica, Arial, sans-serif; }</style>
  <rect width="1200" height="630" fill="url(#sc-bg)" />
  <rect x="0" y="0" width="1200" height="6" fill="#58a6ff" />
  <text x="64" y="92" font-size="28" fill="#58a6ff" font-weight="600">abdulmunimjemal/</text>
  <text x="64" y="172" font-size="72" fill="#f0f6fc" font-weight="800">shipcard</text>
  <text x="64" y="226" font-size="30" fill="#8b949e">Generate a beautiful, shareable SVG card for any repository.</text>
  <text x="64" y="476" font-size="28" fill="#8b949e">★</text>
  <text x="98" y="476" font-size="28" fill="#f0f6fc" font-weight="600">1.3k</text>
  <text x="202.95999999999998" y="476" font-size="28" fill="#8b949e">⎇</text>
  <text x="236.95999999999998" y="476" font-size="28" fill="#f0f6fc" font-weight="600">47</text>
  <rect x="64" y="512" width="1072" height="18" rx="9" fill="#21262d" /><clipPath id="sc-bar"><rect x="64" y="512" width="1072" height="18" rx="9" /></clipPath><g clip-path="url(#sc-bar)"><rect x="64.00" y="512" width="986.24" height="18" fill="#3178c6" /><rect x="1050.24" y="512" width="64.32" height="18" fill="#f1e05a" /><rect x="1114.56" y="512" width="21.44" height="18" fill="#563d7c" /></g>
  <circle cx="70.60" cy="550.80" r="6.60" fill="#3178c6" /><text x="85.20" y="558" font-size="24" fill="#f0f6fc" font-weight="500">TypeScript</text><text x="232.40" y="558" font-size="24" fill="#8b949e">92%</text><circle cx="316.60" cy="550.80" r="6.60" fill="#f1e05a" /><text x="331.20" y="558" font-size="24" fill="#f0f6fc" font-weight="500">JavaScript</text><text x="478.40" y="558" font-size="24" fill="#8b949e">6.0%</text><circle cx="576.52" cy="550.80" r="6.60" fill="#563d7c" /><text x="591.12" y="558" font-size="24" fill="#f0f6fc" font-weight="500">CSS</text><text x="640.88" y="558" font-size="24" fill="#8b949e">2.0%</text>
</svg>
